<mxfile host="drawio-plugin" modified="2022-10-05T18:37:06.729Z" agent="5.0 (Windows NT 6.2; Win64; x64) AppleWebKit/537.36 (KHTML, like Gecko) Chrome/97.0.4692.45 Safari/537.36" etag="txG_rx18jmm2dezISHo-" version="15.5.4" type="embed"><diagram id="B9CjOL8HON2o0GXPbjCn" name="Page-1"><mxGraphModel dx="1763" dy="431" grid="1" gridSize="10" guides="1" tooltips="1" connect="1" arrows="1" fold="1" page="1" pageScale="1" pageWidth="827" pageHeight="1169" math="0" shadow="0"><root><mxCell id="0"/><mxCell id="1" parent="0"/><mxCell id="-N3HLPEfKTboXvXfg7JB-5" value="&lt;p style=&quot;margin: 0px ; margin-top: 4px ; text-align: center&quot;&gt;&lt;i&gt;&amp;lt;&amp;lt;Interface&amp;gt;&amp;gt;&lt;/i&gt;&lt;br&gt;&lt;b&gt;IFigure&lt;/b&gt;&lt;/p&gt;&lt;hr size=&quot;1&quot;&gt;&lt;p style=&quot;margin: 0px ; margin-left: 4px&quot;&gt;&lt;br&gt;&lt;/p&gt;&lt;hr size=&quot;1&quot;&gt;&lt;p style=&quot;margin: 0px ; margin-left: 4px&quot;&gt;&lt;b&gt;+ area(): double&lt;/b&gt;&lt;/p&gt;" style="verticalAlign=top;align=left;overflow=fill;fontSize=12;fontFamily=Helvetica;html=1;" parent="1" vertex="1"><mxGeometry x="370" y="130" width="190" height="140" as="geometry"/></mxCell><mxCell id="-N3HLPEfKTboXvXfg7JB-6" value="&lt;p style=&quot;margin: 0px ; margin-top: 4px ; text-align: center&quot;&gt;&lt;i&gt;&amp;lt;&amp;lt;Interface&amp;gt;&amp;gt;&lt;/i&gt;&lt;br&gt;&lt;b&gt;IPerimeterable&lt;/b&gt;&lt;/p&gt;&lt;hr size=&quot;1&quot;&gt;&lt;p style=&quot;margin: 0px ; margin-left: 4px&quot;&gt;&lt;br&gt;&lt;/p&gt;&lt;hr size=&quot;1&quot;&gt;&lt;p style=&quot;margin: 0px ; margin-left: 4px&quot;&gt;&lt;b&gt;+ perimeter(): double&lt;/b&gt;&lt;/p&gt;" style="verticalAlign=top;align=left;overflow=fill;fontSize=12;fontFamily=Helvetica;html=1;" parent="1" vertex="1"><mxGeometry x="110" y="130" width="190" height="140" as="geometry"/></mxCell><mxCell id="-N3HLPEfKTboXvXfg7JB-7" value="&lt;p style=&quot;margin: 0px ; margin-top: 4px ; text-align: center&quot;&gt;&lt;i&gt;&amp;lt;&amp;lt;Interface&amp;gt;&amp;gt;&lt;/i&gt;&lt;br&gt;&lt;b&gt;ILengthable&lt;/b&gt;&lt;/p&gt;&lt;hr size=&quot;1&quot;&gt;&lt;p style=&quot;margin: 0px ; margin-left: 4px&quot;&gt;&lt;br&gt;&lt;/p&gt;&lt;hr size=&quot;1&quot;&gt;&lt;p style=&quot;margin: 0px ; margin-left: 4px&quot;&gt;&lt;b&gt;+ length(): double&lt;/b&gt;&lt;/p&gt;" style="verticalAlign=top;align=left;overflow=fill;fontSize=12;fontFamily=Helvetica;html=1;" parent="1" vertex="1"><mxGeometry x="637" y="130" width="190" height="140" as="geometry"/></mxCell><mxCell id="-N3HLPEfKTboXvXfg7JB-8" value="Polygon" style="swimlane;fontStyle=1;align=center;verticalAlign=top;childLayout=stackLayout;horizontal=1;startSize=26;horizontalStack=0;resizeParent=1;resizeParentMax=0;resizeLast=0;collapsible=1;marginBottom=0;" parent="1" vertex="1"><mxGeometry x="240" y="390" width="160" height="120" as="geometry"/></mxCell><mxCell id="-N3HLPEfKTboXvXfg7JB-9" value="- sides: double[]" style="text;strokeColor=none;fillColor=none;align=left;verticalAlign=top;spacingLeft=4;spacingRight=4;overflow=hidden;rotatable=0;points=[[0,0.5],[1,0.5]];portConstraint=eastwest;" parent="-N3HLPEfKTboXvXfg7JB-8" vertex="1"><mxGeometry y="26" width="160" height="26" as="geometry"/></mxCell><mxCell id="-N3HLPEfKTboXvXfg7JB-10" value="" style="line;strokeWidth=1;fillColor=none;align=left;verticalAlign=middle;spacingTop=-1;spacingLeft=3;spacingRight=3;rotatable=0;labelPosition=right;points=[];portConstraint=eastwest;" parent="-N3HLPEfKTboXvXfg7JB-8" vertex="1"><mxGeometry y="52" width="160" height="8" as="geometry"/></mxCell><mxCell id="-N3HLPEfKTboXvXfg7JB-11" value="# Polygon(sides: double[])&#10;+ area(): double&#10;+ perimeter(): double&#10;" style="text;strokeColor=none;fillColor=none;align=left;verticalAlign=top;spacingLeft=4;spacingRight=4;overflow=hidden;rotatable=0;points=[[0,0.5],[1,0.5]];portConstraint=eastwest;fontStyle=2" parent="-N3HLPEfKTboXvXfg7JB-8" vertex="1"><mxGeometry y="60" width="160" height="60" as="geometry"/></mxCell><mxCell id="-N3HLPEfKTboXvXfg7JB-12" value="Circle" style="swimlane;fontStyle=1;align=center;verticalAlign=top;childLayout=stackLayout;horizontal=1;startSize=26;horizontalStack=0;resizeParent=1;resizeParentMax=0;resizeLast=0;collapsible=1;marginBottom=0;" parent="1" vertex="1"><mxGeometry x="652" y="386" width="160" height="120" as="geometry"/></mxCell><mxCell id="-N3HLPEfKTboXvXfg7JB-13" value="- radius: double" style="text;strokeColor=none;fillColor=none;align=left;verticalAlign=top;spacingLeft=4;spacingRight=4;overflow=hidden;rotatable=0;points=[[0,0.5],[1,0.5]];portConstraint=eastwest;" parent="-N3HLPEfKTboXvXfg7JB-12" vertex="1"><mxGeometry y="26" width="160" height="26" as="geometry"/></mxCell><mxCell id="-N3HLPEfKTboXvXfg7JB-14" value="" style="line;strokeWidth=1;fillColor=none;align=left;verticalAlign=middle;spacingTop=-1;spacingLeft=3;spacingRight=3;rotatable=0;labelPosition=right;points=[];portConstraint=eastwest;" parent="-N3HLPEfKTboXvXfg7JB-12" vertex="1"><mxGeometry y="52" width="160" height="8" as="geometry"/></mxCell><mxCell id="-N3HLPEfKTboXvXfg7JB-15" value="+ length(): double&#10;+ area(): double&#10;+ Circle(radius: double)" style="text;strokeColor=none;fillColor=none;align=left;verticalAlign=top;spacingLeft=4;spacingRight=4;overflow=hidden;rotatable=0;points=[[0,0.5],[1,0.5]];portConstraint=eastwest;" parent="-N3HLPEfKTboXvXfg7JB-12" vertex="1"><mxGeometry y="60" width="160" height="60" as="geometry"/></mxCell><mxCell id="-N3HLPEfKTboXvXfg7JB-19" value="" style="endArrow=block;dashed=1;endFill=0;endSize=12;html=1;exitX=0.5;exitY=0;exitDx=0;exitDy=0;entryX=0.75;entryY=1;entryDx=0;entryDy=0;" parent="1" source="-N3HLPEfKTboXvXfg7JB-8" target="-N3HLPEfKTboXvXfg7JB-6" edge="1"><mxGeometry width="160" relative="1" as="geometry"><mxPoint x="500" y="420" as="sourcePoint"/><mxPoint x="660" y="420" as="targetPoint"/></mxGeometry></mxCell><mxCell id="-N3HLPEfKTboXvXfg7JB-20" value="" style="endArrow=block;dashed=1;endFill=0;endSize=12;html=1;exitX=0.5;exitY=0;exitDx=0;exitDy=0;entryX=0.5;entryY=1;entryDx=0;entryDy=0;" parent="1" source="-N3HLPEfKTboXvXfg7JB-12" target="-N3HLPEfKTboXvXfg7JB-7" edge="1"><mxGeometry width="160" relative="1" as="geometry"><mxPoint x="500" y="420" as="sourcePoint"/><mxPoint x="660" y="420" as="targetPoint"/></mxGeometry></mxCell><mxCell id="-N3HLPEfKTboXvXfg7JB-21" value="" style="endArrow=block;dashed=1;endFill=0;endSize=12;html=1;exitX=0.25;exitY=0;exitDx=0;exitDy=0;entryX=0.75;entryY=1;entryDx=0;entryDy=0;" parent="1" source="-N3HLPEfKTboXvXfg7JB-12" target="-N3HLPEfKTboXvXfg7JB-5" edge="1"><mxGeometry width="160" relative="1" as="geometry"><mxPoint x="500" y="420" as="sourcePoint"/><mxPoint x="660" y="420" as="targetPoint"/></mxGeometry></mxCell><mxCell id="-N3HLPEfKTboXvXfg7JB-22" value="" style="endArrow=block;dashed=1;endFill=0;endSize=12;html=1;exitX=0.75;exitY=0;exitDx=0;exitDy=0;entryX=0.25;entryY=1;entryDx=0;entryDy=0;" parent="1" source="-N3HLPEfKTboXvXfg7JB-8" target="-N3HLPEfKTboXvXfg7JB-5" edge="1"><mxGeometry width="160" relative="1" as="geometry"><mxPoint x="500" y="420" as="sourcePoint"/><mxPoint x="660" y="420" as="targetPoint"/></mxGeometry></mxCell><mxCell id="-N3HLPEfKTboXvXfg7JB-27" value="Triangle" style="swimlane;fontStyle=1;align=center;verticalAlign=top;childLayout=stackLayout;horizontal=1;startSize=26;horizontalStack=0;resizeParent=1;resizeParentMax=0;resizeLast=0;collapsible=1;marginBottom=0;" parent="1" vertex="1"><mxGeometry x="390" y="580" width="320" height="160" as="geometry"/></mxCell><mxCell id="-N3HLPEfKTboXvXfg7JB-29" value="" style="line;strokeWidth=1;fillColor=none;align=left;verticalAlign=middle;spacingTop=-1;spacingLeft=3;spacingRight=3;rotatable=0;labelPosition=right;points=[];portConstraint=eastwest;" parent="-N3HLPEfKTboXvXfg7JB-27" vertex="1"><mxGeometry y="26" width="320" height="8" as="geometry"/></mxCell><mxCell id="-N3HLPEfKTboXvXfg7JB-30" value="+ getFirstSide(): double&#10;+ getSecondSide(): double&#10;+ getThirdSide(): double&#10;+ area(): double&#10;+ perimeter(): double&#10;+ Triangle(side1: double, side2: double, side3: double)" style="text;strokeColor=none;fillColor=none;align=left;verticalAlign=top;spacingLeft=4;spacingRight=4;overflow=hidden;rotatable=0;points=[[0,0.5],[1,0.5]];portConstraint=eastwest;" parent="-N3HLPEfKTboXvXfg7JB-27" vertex="1"><mxGeometry y="34" width="320" height="126" as="geometry"/></mxCell><mxCell id="-N3HLPEfKTboXvXfg7JB-23" value="Rectangle" style="swimlane;fontStyle=1;align=center;verticalAlign=top;childLayout=stackLayout;horizontal=1;startSize=26;horizontalStack=0;resizeParent=1;resizeParentMax=0;resizeLast=0;collapsible=1;marginBottom=0;" parent="1" vertex="1"><mxGeometry x="50" y="593" width="210" height="134" as="geometry"/></mxCell><mxCell id="-N3HLPEfKTboXvXfg7JB-25" value="" style="line;strokeWidth=1;fillColor=none;align=left;verticalAlign=middle;spacingTop=-1;spacingLeft=3;spacingRight=3;rotatable=0;labelPosition=right;points=[];portConstraint=eastwest;" parent="-N3HLPEfKTboXvXfg7JB-23" vertex="1"><mxGeometry y="26" width="210" height="8" as="geometry"/></mxCell><mxCell id="-N3HLPEfKTboXvXfg7JB-26" value="+ area(): double&#10;+ perimeter(): double&#10;+ Rectabgle(length: double, width: double)&#10;+ getLength(): double&#10;+ getWidth(): double" style="text;strokeColor=none;fillColor=none;align=left;verticalAlign=top;spacingLeft=4;spacingRight=4;overflow=hidden;rotatable=0;points=[[0,0.5],[1,0.5]];portConstraint=eastwest;" parent="-N3HLPEfKTboXvXfg7JB-23" vertex="1"><mxGeometry y="34" width="210" height="100" as="geometry"/></mxCell><mxCell id="-N3HLPEfKTboXvXfg7JB-31" value="Extends" style="endArrow=block;endSize=16;endFill=0;html=1;exitX=0.5;exitY=0;exitDx=0;exitDy=0;entryX=0;entryY=0.5;entryDx=0;entryDy=0;" parent="1" source="-N3HLPEfKTboXvXfg7JB-23" target="-N3HLPEfKTboXvXfg7JB-11" edge="1"><mxGeometry width="160" relative="1" as="geometry"><mxPoint x="500" y="520" as="sourcePoint"/><mxPoint x="660" y="520" as="targetPoint"/></mxGeometry></mxCell><mxCell id="-N3HLPEfKTboXvXfg7JB-32" value="Extends" style="endArrow=block;endSize=16;endFill=0;html=1;exitX=0.25;exitY=0;exitDx=0;exitDy=0;entryX=1;entryY=0.5;entryDx=0;entryDy=0;" parent="1" source="-N3HLPEfKTboXvXfg7JB-27" target="-N3HLPEfKTboXvXfg7JB-11" edge="1"><mxGeometry width="160" relative="1" as="geometry"><mxPoint x="500" y="520" as="sourcePoint"/><mxPoint x="660" y="520" as="targetPoint"/></mxGeometry></mxCell><mxCell id="-N3HLPEfKTboXvXfg7JB-41" value="Extends" style="endArrow=block;endSize=16;endFill=0;html=1;exitX=0.5;exitY=0;exitDx=0;exitDy=0;entryX=0;entryY=0.5;entryDx=0;entryDy=0;" parent="1" source="-N3HLPEfKTboXvXfg7JB-37" target="-N3HLPEfKTboXvXfg7JB-26" edge="1"><mxGeometry width="160" relative="1" as="geometry"><mxPoint x="500" y="820" as="sourcePoint"/><mxPoint x="660" y="820" as="targetPoint"/></mxGeometry></mxCell><mxCell id="-N3HLPEfKTboXvXfg7JB-37" value="Square" style="swimlane;fontStyle=1;align=center;verticalAlign=top;childLayout=stackLayout;horizontal=1;startSize=26;horizontalStack=0;resizeParent=1;resizeParentMax=0;resizeLast=0;collapsible=1;marginBottom=0;" parent="1" vertex="1"><mxGeometry x="-130" y="844" width="160" height="130" as="geometry"/></mxCell><mxCell id="-N3HLPEfKTboXvXfg7JB-39" value="" style="line;strokeWidth=1;fillColor=none;align=left;verticalAlign=middle;spacingTop=-1;spacingLeft=3;spacingRight=3;rotatable=0;labelPosition=right;points=[];portConstraint=eastwest;" parent="-N3HLPEfKTboXvXfg7JB-37" vertex="1"><mxGeometry y="26" width="160" height="8" as="geometry"/></mxCell><mxCell id="-N3HLPEfKTboXvXfg7JB-40" value="+ area(): double&#10;+ perimeter(): doube&#10;+ getSide() : double&#10;+ Squre(side: doube)&#10;" style="text;strokeColor=none;fillColor=none;align=left;verticalAlign=top;spacingLeft=4;spacingRight=4;overflow=hidden;rotatable=0;points=[[0,0.5],[1,0.5]];portConstraint=eastwest;" parent="-N3HLPEfKTboXvXfg7JB-37" vertex="1"><mxGeometry y="34" width="160" height="96" as="geometry"/></mxCell><mxCell id="-N3HLPEfKTboXvXfg7JB-63" value="Relation" style="endArrow=open;html=1;endSize=12;startArrow=diamondThin;startSize=14;startFill=0;edgeStyle=orthogonalEdgeStyle;exitX=0.75;exitY=0;exitDx=0;exitDy=0;entryX=0.5;entryY=1;entryDx=0;entryDy=0;" parent="1" source="-N3HLPEfKTboXvXfg7JB-59" target="-N3HLPEfKTboXvXfg7JB-5" edge="1"><mxGeometry relative="1" as="geometry"><mxPoint x="500" y="630" as="sourcePoint"/><mxPoint x="660" y="630" as="targetPoint"/></mxGeometry></mxCell><mxCell id="-N3HLPEfKTboXvXfg7JB-64" value="0..n" style="edgeLabel;resizable=0;html=1;align=left;verticalAlign=top;" parent="-N3HLPEfKTboXvXfg7JB-63" connectable="0" vertex="1"><mxGeometry x="-1" relative="1" as="geometry"/></mxCell><mxCell id="-N3HLPEfKTboXvXfg7JB-65" value="1" style="edgeLabel;resizable=0;html=1;align=right;verticalAlign=top;" parent="-N3HLPEfKTboXvXfg7JB-63" connectable="0" vertex="1"><mxGeometry x="1" relative="1" as="geometry"/></mxCell><mxCell id="-N3HLPEfKTboXvXfg7JB-59" value="FigureRepository" style="swimlane;fontStyle=1;align=center;verticalAlign=top;childLayout=stackLayout;horizontal=1;startSize=26;horizontalStack=0;resizeParent=1;resizeParentMax=0;resizeLast=0;collapsible=1;marginBottom=0;" parent="1" vertex="1"><mxGeometry x="790" y="840" width="243" height="174" as="geometry"/></mxCell><mxCell id="-N3HLPEfKTboXvXfg7JB-61" value="" style="line;strokeWidth=1;fillColor=none;align=left;verticalAlign=middle;spacingTop=-1;spacingLeft=3;spacingRight=3;rotatable=0;labelPosition=right;points=[];portConstraint=eastwest;" parent="-N3HLPEfKTboXvXfg7JB-59" vertex="1"><mxGeometry y="26" width="243" height="8" as="geometry"/></mxCell><mxCell id="-N3HLPEfKTboXvXfg7JB-62" value="+ add(figure: IFigure): void&#10;+ remove( figure: IFigure): void&#10;+ remove(index: int): void&#10;+ get(index: int): IFigure&#10;+ update(int index, value: IFigure): void&#10;+ getPerimeters(): double[]&#10;+ getAreas(): double[]&#10;+ getLengths(): double[] " style="text;strokeColor=none;fillColor=none;align=left;verticalAlign=top;spacingLeft=4;spacingRight=4;overflow=hidden;rotatable=0;points=[[0,0.5],[1,0.5]];portConstraint=eastwest;" parent="-N3HLPEfKTboXvXfg7JB-59" vertex="1"><mxGeometry y="34" width="243" height="140" as="geometry"/></mxCell><mxCell id="-N3HLPEfKTboXvXfg7JB-86" value="FigureException" style="swimlane;fontStyle=1;align=center;verticalAlign=top;childLayout=stackLayout;horizontal=1;startSize=26;horizontalStack=0;resizeParent=1;resizeParentMax=0;resizeLast=0;collapsible=1;marginBottom=0;" parent="1" vertex="1"><mxGeometry x="1190" y="150" width="160" height="86" as="geometry"/></mxCell><mxCell id="-N3HLPEfKTboXvXfg7JB-87" value="+ field: type" style="text;strokeColor=none;fillColor=none;align=left;verticalAlign=top;spacingLeft=4;spacingRight=4;overflow=hidden;rotatable=0;points=[[0,0.5],[1,0.5]];portConstraint=eastwest;" parent="-N3HLPEfKTboXvXfg7JB-86" vertex="1"><mxGeometry y="26" width="160" height="26" as="geometry"/></mxCell><mxCell id="-N3HLPEfKTboXvXfg7JB-88" value="" style="line;strokeWidth=1;fillColor=none;align=left;verticalAlign=middle;spacingTop=-1;spacingLeft=3;spacingRight=3;rotatable=0;labelPosition=right;points=[];portConstraint=eastwest;" parent="-N3HLPEfKTboXvXfg7JB-86" vertex="1"><mxGeometry y="52" width="160" height="8" as="geometry"/></mxCell><mxCell id="-N3HLPEfKTboXvXfg7JB-89" value="+getMessage(): String" style="text;strokeColor=none;fillColor=none;align=left;verticalAlign=top;spacingLeft=4;spacingRight=4;overflow=hidden;rotatable=0;points=[[0,0.5],[1,0.5]];portConstraint=eastwest;" parent="-N3HLPEfKTboXvXfg7JB-86" vertex="1"><mxGeometry y="60" width="160" height="26" as="geometry"/></mxCell><mxCell id="-N3HLPEfKTboXvXfg7JB-72" value="FigureFactory" style="swimlane;fontStyle=1;align=center;verticalAlign=top;childLayout=stackLayout;horizontal=1;startSize=26;horizontalStack=0;resizeParent=1;resizeParentMax=0;resizeLast=0;collapsible=1;marginBottom=0;" parent="1" vertex="1"><mxGeometry x="125" y="954" width="375" height="60" as="geometry"/></mxCell><mxCell id="-N3HLPEfKTboXvXfg7JB-74" value="" style="line;strokeWidth=1;fillColor=none;align=left;verticalAlign=middle;spacingTop=-1;spacingLeft=3;spacingRight=3;rotatable=0;labelPosition=right;points=[];portConstraint=eastwest;" parent="-N3HLPEfKTboXvXfg7JB-72" vertex="1"><mxGeometry y="26" width="375" height="8" as="geometry"/></mxCell><mxCell id="-N3HLPEfKTboXvXfg7JB-75" value="+ CreateFigure(figureType:int, parameters: double[]): IFigure" style="text;strokeColor=none;fillColor=none;align=left;verticalAlign=top;spacingLeft=4;spacingRight=4;overflow=hidden;rotatable=0;points=[[0,0.5],[1,0.5]];portConstraint=eastwest;" parent="-N3HLPEfKTboXvXfg7JB-72" vertex="1"><mxGeometry y="34" width="375" height="26" as="geometry"/></mxCell><mxCell id="-N3HLPEfKTboXvXfg7JB-83" value="Use" style="endArrow=open;endSize=12;dashed=1;html=1;exitX=1;exitY=0;exitDx=0;exitDy=0;entryX=0.644;entryY=1.05;entryDx=0;entryDy=0;entryPerimeter=0;" parent="1" source="-N3HLPEfKTboXvXfg7JB-72" target="-N3HLPEfKTboXvXfg7JB-15" edge="1"><mxGeometry width="160" relative="1" as="geometry"><mxPoint x="600" y="750" as="sourcePoint"/><mxPoint x="760" y="750" as="targetPoint"/><Array as="points"><mxPoint x="720" y="890"/><mxPoint x="740" y="710"/></Array></mxGeometry></mxCell><mxCell id="-N3HLPEfKTboXvXfg7JB-90" value="IncorrectSideException" style="swimlane;fontStyle=1;align=center;verticalAlign=top;childLayout=stackLayout;horizontal=1;startSize=26;horizontalStack=0;resizeParent=1;resizeParentMax=0;resizeLast=0;collapsible=1;marginBottom=0;" parent="1" vertex="1"><mxGeometry x="1130" y="348" width="160" height="86" as="geometry"/></mxCell><mxCell id="-N3HLPEfKTboXvXfg7JB-91" value="+ field: type" style="text;strokeColor=none;fillColor=none;align=left;verticalAlign=top;spacingLeft=4;spacingRight=4;overflow=hidden;rotatable=0;points=[[0,0.5],[1,0.5]];portConstraint=eastwest;" parent="-N3HLPEfKTboXvXfg7JB-90" vertex="1"><mxGeometry y="26" width="160" height="26" as="geometry"/></mxCell><mxCell id="-N3HLPEfKTboXvXfg7JB-92" value="" style="line;strokeWidth=1;fillColor=none;align=left;verticalAlign=middle;spacingTop=-1;spacingLeft=3;spacingRight=3;rotatable=0;labelPosition=right;points=[];portConstraint=eastwest;" parent="-N3HLPEfKTboXvXfg7JB-90" vertex="1"><mxGeometry y="52" width="160" height="8" as="geometry"/></mxCell><mxCell id="-N3HLPEfKTboXvXfg7JB-93" value="+ getMessage(): String" style="text;strokeColor=none;fillColor=none;align=left;verticalAlign=top;spacingLeft=4;spacingRight=4;overflow=hidden;rotatable=0;points=[[0,0.5],[1,0.5]];portConstraint=eastwest;" parent="-N3HLPEfKTboXvXfg7JB-90" vertex="1"><mxGeometry y="60" width="160" height="26" as="geometry"/></mxCell><mxCell id="-N3HLPEfKTboXvXfg7JB-94" value="IncorrectRadiausException" style="swimlane;fontStyle=1;align=center;verticalAlign=top;childLayout=stackLayout;horizontal=1;startSize=26;horizontalStack=0;resizeParent=1;resizeParentMax=0;resizeLast=0;collapsible=1;marginBottom=0;" parent="1" vertex="1"><mxGeometry x="1400" y="348" width="160" height="86" as="geometry"/></mxCell><mxCell id="-N3HLPEfKTboXvXfg7JB-95" value="+ field: type" style="text;strokeColor=none;fillColor=none;align=left;verticalAlign=top;spacingLeft=4;spacingRight=4;overflow=hidden;rotatable=0;points=[[0,0.5],[1,0.5]];portConstraint=eastwest;" parent="-N3HLPEfKTboXvXfg7JB-94" vertex="1"><mxGeometry y="26" width="160" height="26" as="geometry"/></mxCell><mxCell id="-N3HLPEfKTboXvXfg7JB-96" value="" style="line;strokeWidth=1;fillColor=none;align=left;verticalAlign=middle;spacingTop=-1;spacingLeft=3;spacingRight=3;rotatable=0;labelPosition=right;points=[];portConstraint=eastwest;" parent="-N3HLPEfKTboXvXfg7JB-94" vertex="1"><mxGeometry y="52" width="160" height="8" as="geometry"/></mxCell><mxCell id="-N3HLPEfKTboXvXfg7JB-97" value="+ getMessage(): String" style="text;strokeColor=none;fillColor=none;align=left;verticalAlign=top;spacingLeft=4;spacingRight=4;overflow=hidden;rotatable=0;points=[[0,0.5],[1,0.5]];portConstraint=eastwest;" parent="-N3HLPEfKTboXvXfg7JB-94" vertex="1"><mxGeometry y="60" width="160" height="26" as="geometry"/></mxCell><mxCell id="-N3HLPEfKTboXvXfg7JB-98" value="Extends" style="endArrow=block;endSize=16;endFill=0;html=1;exitX=0.5;exitY=0;exitDx=0;exitDy=0;entryX=0.219;entryY=1;entryDx=0;entryDy=0;entryPerimeter=0;" parent="1" source="-N3HLPEfKTboXvXfg7JB-90" target="-N3HLPEfKTboXvXfg7JB-89" edge="1"><mxGeometry width="160" relative="1" as="geometry"><mxPoint x="830" y="450" as="sourcePoint"/><mxPoint x="990" y="450" as="targetPoint"/></mxGeometry></mxCell><mxCell id="-N3HLPEfKTboXvXfg7JB-99" value="Extends" style="endArrow=block;endSize=16;endFill=0;html=1;exitX=0.5;exitY=0;exitDx=0;exitDy=0;entryX=1;entryY=0.5;entryDx=0;entryDy=0;" parent="1" source="-N3HLPEfKTboXvXfg7JB-94" target="-N3HLPEfKTboXvXfg7JB-89" edge="1"><mxGeometry width="160" relative="1" as="geometry"><mxPoint x="830" y="450" as="sourcePoint"/><mxPoint x="990" y="450" as="targetPoint"/></mxGeometry></mxCell><mxCell id="-N3HLPEfKTboXvXfg7JB-100" value="Use" style="endArrow=open;endSize=12;dashed=1;html=1;exitX=1;exitY=0.183;exitDx=0;exitDy=0;exitPerimeter=0;entryX=0;entryY=0.5;entryDx=0;entryDy=0;" parent="1" source="-N3HLPEfKTboXvXfg7JB-15" target="-N3HLPEfKTboXvXfg7JB-97" edge="1"><mxGeometry width="160" relative="1" as="geometry"><mxPoint x="840" y="450" as="sourcePoint"/><mxPoint x="1000" y="450" as="targetPoint"/></mxGeometry></mxCell><mxCell id="-N3HLPEfKTboXvXfg7JB-101" value="Use" style="endArrow=open;endSize=12;dashed=1;html=1;exitX=1;exitY=0;exitDx=0;exitDy=0;entryX=0;entryY=0;entryDx=0;entryDy=0;" parent="1" source="-N3HLPEfKTboXvXfg7JB-8" target="-N3HLPEfKTboXvXfg7JB-90" edge="1"><mxGeometry width="160" relative="1" as="geometry"><mxPoint x="840" y="450" as="sourcePoint"/><mxPoint x="1000" y="450" as="targetPoint"/></mxGeometry></mxCell><mxCell id="-N3HLPEfKTboXvXfg7JB-149" value="Repository&lt;T&gt;" style="swimlane;fontStyle=1;align=center;verticalAlign=top;childLayout=stackLayout;horizontal=1;startSize=26;horizontalStack=0;resizeParent=1;resizeParentMax=0;resizeLast=0;collapsible=1;marginBottom=0;" parent="1" vertex="1"><mxGeometry x="920" y="170" width="210" height="160" as="geometry"/></mxCell><mxCell id="-N3HLPEfKTboXvXfg7JB-150" value="- values: ArrayList&lt;T&gt;" style="text;strokeColor=none;fillColor=none;align=left;verticalAlign=top;spacingLeft=4;spacingRight=4;overflow=hidden;rotatable=0;points=[[0,0.5],[1,0.5]];portConstraint=eastwest;" parent="-N3HLPEfKTboXvXfg7JB-149" vertex="1"><mxGeometry y="26" width="210" height="26" as="geometry"/></mxCell><mxCell id="-N3HLPEfKTboXvXfg7JB-151" value="" style="line;strokeWidth=1;fillColor=none;align=left;verticalAlign=middle;spacingTop=-1;spacingLeft=3;spacingRight=3;rotatable=0;labelPosition=right;points=[];portConstraint=eastwest;" parent="-N3HLPEfKTboXvXfg7JB-149" vertex="1"><mxGeometry y="52" width="210" height="8" as="geometry"/></mxCell><mxCell id="-N3HLPEfKTboXvXfg7JB-152" value="+ add(value: T): void&#10;+ remove(value: T): void&#10;+ remove(index: int) : void&#10;+ update(index: int, value: T): void&#10;+ get(index: int): T&#10;+ count(): int" style="text;strokeColor=none;fillColor=none;align=left;verticalAlign=top;spacingLeft=4;spacingRight=4;overflow=hidden;rotatable=0;points=[[0,0.5],[1,0.5]];portConstraint=eastwest;" parent="-N3HLPEfKTboXvXfg7JB-149" vertex="1"><mxGeometry y="60" width="210" height="100" as="geometry"/></mxCell><mxCell id="-N3HLPEfKTboXvXfg7JB-106" value="Controller" style="swimlane;fontStyle=1;align=center;verticalAlign=top;childLayout=stackLayout;horizontal=1;startSize=26;horizontalStack=0;resizeParent=1;resizeParentMax=0;resizeLast=0;collapsible=1;marginBottom=0;" parent="1" vertex="1"><mxGeometry x="260" y="1169" width="550" height="158" as="geometry"/></mxCell><mxCell id="-N3HLPEfKTboXvXfg7JB-107" value="- figureCreater: FigureFactory&#10;- figureRepository: FigureRepository" style="text;strokeColor=none;fillColor=none;align=left;verticalAlign=top;spacingLeft=4;spacingRight=4;overflow=hidden;rotatable=0;points=[[0,0.5],[1,0.5]];portConstraint=eastwest;" parent="-N3HLPEfKTboXvXfg7JB-106" vertex="1"><mxGeometry y="26" width="550" height="44" as="geometry"/></mxCell><mxCell id="-N3HLPEfKTboXvXfg7JB-108" value="" style="line;strokeWidth=1;fillColor=none;align=left;verticalAlign=middle;spacingTop=-1;spacingLeft=3;spacingRight=3;rotatable=0;labelPosition=right;points=[];portConstraint=eastwest;" parent="-N3HLPEfKTboXvXfg7JB-106" vertex="1"><mxGeometry y="70" width="550" height="8" as="geometry"/></mxCell><mxCell id="-N3HLPEfKTboXvXfg7JB-109" value="+ addFigure(figureType: int, parameters: double[]): void&#10;+ getPerimeters(): double[]&#10;+ getAreas(): double[]&#10;+ getLengths(): double[]&#10;+ Controller(figureRepotiroy: IRepository&lt;IFigure&gt;, figureFactory: IFigureFactory)&#10;" style="text;strokeColor=none;fillColor=none;align=left;verticalAlign=top;spacingLeft=4;spacingRight=4;overflow=hidden;rotatable=0;points=[[0,0.5],[1,0.5]];portConstraint=eastwest;" parent="-N3HLPEfKTboXvXfg7JB-106" vertex="1"><mxGeometry y="78" width="550" height="80" as="geometry"/></mxCell><mxCell id="-N3HLPEfKTboXvXfg7JB-111" value="1" style="endArrow=open;html=1;endSize=12;startArrow=diamondThin;startSize=14;startFill=0;edgeStyle=orthogonalEdgeStyle;align=left;verticalAlign=bottom;exitX=0.75;exitY=0;exitDx=0;exitDy=0;entryX=0;entryY=0.5;entryDx=0;entryDy=0;" parent="1" source="-N3HLPEfKTboXvXfg7JB-106" target="-N3HLPEfKTboXvXfg7JB-62" edge="1"><mxGeometry x="-1" y="3" relative="1" as="geometry"><mxPoint x="590" y="1150" as="sourcePoint"/><mxPoint x="750" y="1150" as="targetPoint"/></mxGeometry></mxCell><mxCell id="-N3HLPEfKTboXvXfg7JB-112" value="1" style="endArrow=open;html=1;endSize=12;startArrow=diamondThin;startSize=14;startFill=0;edgeStyle=orthogonalEdgeStyle;align=left;verticalAlign=bottom;exitX=0.25;exitY=0;exitDx=0;exitDy=0;" parent="1" source="-N3HLPEfKTboXvXfg7JB-106" target="-N3HLPEfKTboXvXfg7JB-75" edge="1"><mxGeometry x="-1" y="3" relative="1" as="geometry"><mxPoint x="590" y="1150" as="sourcePoint"/><mxPoint x="750" y="1150" as="targetPoint"/></mxGeometry></mxCell><mxCell id="-N3HLPEfKTboXvXfg7JB-113" value="" style="endArrow=open;endFill=1;endSize=12;html=1;exitX=0;exitY=0.5;exitDx=0;exitDy=0;entryX=1;entryY=0.5;entryDx=0;entryDy=0;" parent="1" source="-N3HLPEfKTboXvXfg7JB-103" target="-N3HLPEfKTboXvXfg7JB-109" edge="1"><mxGeometry width="160" relative="1" as="geometry"><mxPoint x="590" y="1150" as="sourcePoint"/><mxPoint x="750" y="1150" as="targetPoint"/></mxGeometry></mxCell><mxCell id="-N3HLPEfKTboXvXfg7JB-115" value="&lt;p style=&quot;margin: 0px ; margin-top: 4px ; text-align: center&quot;&gt;&lt;i&gt;&amp;lt;&amp;lt;Interface&amp;gt;&amp;gt;&lt;/i&gt;&lt;br&gt;&lt;b&gt;IDialog&lt;/b&gt;&lt;/p&gt;&lt;hr size=&quot;1&quot;&gt;&lt;p style=&quot;margin: 0px ; margin-left: 4px&quot;&gt;&lt;br&gt;&lt;/p&gt;&lt;hr size=&quot;1&quot;&gt;&lt;p style=&quot;margin: 0px ; margin-left: 4px&quot;&gt;+ showDialog(): double[]&lt;/p&gt;" style="verticalAlign=top;align=left;overflow=fill;fontSize=12;fontFamily=Helvetica;html=1;" parent="1" vertex="1"><mxGeometry x="1460" y="860" width="170" height="100" as="geometry"/></mxCell><mxCell id="-N3HLPEfKTboXvXfg7JB-119" value="TriangleDialog" style="swimlane;fontStyle=1;align=center;verticalAlign=top;childLayout=stackLayout;horizontal=1;startSize=26;horizontalStack=0;resizeParent=1;resizeParentMax=0;resizeLast=0;collapsible=1;marginBottom=0;" parent="1" vertex="1"><mxGeometry x="1210" y="1327" width="160" height="60" as="geometry"/></mxCell><mxCell id="-N3HLPEfKTboXvXfg7JB-121" value="" style="line;strokeWidth=1;fillColor=none;align=left;verticalAlign=middle;spacingTop=-1;spacingLeft=3;spacingRight=3;rotatable=0;labelPosition=right;points=[];portConstraint=eastwest;" parent="-N3HLPEfKTboXvXfg7JB-119" vertex="1"><mxGeometry y="26" width="160" height="8" as="geometry"/></mxCell><mxCell id="-N3HLPEfKTboXvXfg7JB-122" value="+ showDialog(): double[]" style="text;strokeColor=none;fillColor=none;align=left;verticalAlign=top;spacingLeft=4;spacingRight=4;overflow=hidden;rotatable=0;points=[[0,0.5],[1,0.5]];portConstraint=eastwest;" parent="-N3HLPEfKTboXvXfg7JB-119" vertex="1"><mxGeometry y="34" width="160" height="26" as="geometry"/></mxCell><mxCell id="-N3HLPEfKTboXvXfg7JB-123" value="" style="endArrow=block;dashed=1;endFill=0;endSize=12;html=1;exitX=0.25;exitY=0;exitDx=0;exitDy=0;entryX=0.25;entryY=1;entryDx=0;entryDy=0;" parent="1" source="-N3HLPEfKTboXvXfg7JB-119" target="-N3HLPEfKTboXvXfg7JB-115" edge="1"><mxGeometry width="160" relative="1" as="geometry"><mxPoint x="970" y="1250" as="sourcePoint"/><mxPoint x="1130" y="1250" as="targetPoint"/></mxGeometry></mxCell><mxCell id="-N3HLPEfKTboXvXfg7JB-124" value="RectangleDialog" style="swimlane;fontStyle=1;align=center;verticalAlign=top;childLayout=stackLayout;horizontal=1;startSize=26;horizontalStack=0;resizeParent=1;resizeParentMax=0;resizeLast=0;collapsible=1;marginBottom=0;" parent="1" vertex="1"><mxGeometry x="1420" y="1310" width="160" height="60" as="geometry"/></mxCell><mxCell id="-N3HLPEfKTboXvXfg7JB-126" value="" style="line;strokeWidth=1;fillColor=none;align=left;verticalAlign=middle;spacingTop=-1;spacingLeft=3;spacingRight=3;rotatable=0;labelPosition=right;points=[];portConstraint=eastwest;" parent="-N3HLPEfKTboXvXfg7JB-124" vertex="1"><mxGeometry y="26" width="160" height="8" as="geometry"/></mxCell><mxCell id="-N3HLPEfKTboXvXfg7JB-127" value="+ showDialog(): double[]" style="text;strokeColor=none;fillColor=none;align=left;verticalAlign=top;spacingLeft=4;spacingRight=4;overflow=hidden;rotatable=0;points=[[0,0.5],[1,0.5]];portConstraint=eastwest;" parent="-N3HLPEfKTboXvXfg7JB-124" vertex="1"><mxGeometry y="34" width="160" height="26" as="geometry"/></mxCell><mxCell id="-N3HLPEfKTboXvXfg7JB-128" value="" style="endArrow=block;dashed=1;endFill=0;endSize=12;html=1;exitX=0.25;exitY=0;exitDx=0;exitDy=0;entryX=0.5;entryY=1;entryDx=0;entryDy=0;" parent="1" source="-N3HLPEfKTboXvXfg7JB-124" target="-N3HLPEfKTboXvXfg7JB-115" edge="1"><mxGeometry width="160" relative="1" as="geometry"><mxPoint x="970" y="1250" as="sourcePoint"/><mxPoint x="1130" y="1250" as="targetPoint"/></mxGeometry></mxCell><mxCell id="-N3HLPEfKTboXvXfg7JB-130" value="SquareDialog" style="swimlane;fontStyle=1;align=center;verticalAlign=top;childLayout=stackLayout;horizontal=1;startSize=26;horizontalStack=0;resizeParent=1;resizeParentMax=0;resizeLast=0;collapsible=1;marginBottom=0;" parent="1" vertex="1"><mxGeometry x="1630" y="1290" width="160" height="60" as="geometry"/></mxCell><mxCell id="-N3HLPEfKTboXvXfg7JB-132" value="" style="line;strokeWidth=1;fillColor=none;align=left;verticalAlign=middle;spacingTop=-1;spacingLeft=3;spacingRight=3;rotatable=0;labelPosition=right;points=[];portConstraint=eastwest;" parent="-N3HLPEfKTboXvXfg7JB-130" vertex="1"><mxGeometry y="26" width="160" height="8" as="geometry"/></mxCell><mxCell id="-N3HLPEfKTboXvXfg7JB-133" value="+ showDialog(): double" style="text;strokeColor=none;fillColor=none;align=left;verticalAlign=top;spacingLeft=4;spacingRight=4;overflow=hidden;rotatable=0;points=[[0,0.5],[1,0.5]];portConstraint=eastwest;" parent="-N3HLPEfKTboXvXfg7JB-130" vertex="1"><mxGeometry y="34" width="160" height="26" as="geometry"/></mxCell><mxCell id="-N3HLPEfKTboXvXfg7JB-134" value="" style="endArrow=block;dashed=1;endFill=0;endSize=12;html=1;exitX=0.25;exitY=0;exitDx=0;exitDy=0;entryX=1;entryY=1;entryDx=0;entryDy=0;" parent="1" source="-N3HLPEfKTboXvXfg7JB-130" target="-N3HLPEfKTboXvXfg7JB-115" edge="1"><mxGeometry width="160" relative="1" as="geometry"><mxPoint x="1600" y="1200" as="sourcePoint"/><mxPoint x="1760" y="1200" as="targetPoint"/></mxGeometry></mxCell><mxCell id="-N3HLPEfKTboXvXfg7JB-135" value="CircleDialog" style="swimlane;fontStyle=1;align=center;verticalAlign=top;childLayout=stackLayout;horizontal=1;startSize=26;horizontalStack=0;resizeParent=1;resizeParentMax=0;resizeLast=0;collapsible=1;marginBottom=0;" parent="1" vertex="1"><mxGeometry x="1840" y="1280" width="160" height="60" as="geometry"/></mxCell><mxCell id="-N3HLPEfKTboXvXfg7JB-137" value="" style="line;strokeWidth=1;fillColor=none;align=left;verticalAlign=middle;spacingTop=-1;spacingLeft=3;spacingRight=3;rotatable=0;labelPosition=right;points=[];portConstraint=eastwest;" parent="-N3HLPEfKTboXvXfg7JB-135" vertex="1"><mxGeometry y="26" width="160" height="8" as="geometry"/></mxCell><mxCell id="-N3HLPEfKTboXvXfg7JB-138" value="+ showDialog(): double[]" style="text;strokeColor=none;fillColor=none;align=left;verticalAlign=top;spacingLeft=4;spacingRight=4;overflow=hidden;rotatable=0;points=[[0,0.5],[1,0.5]];portConstraint=eastwest;" parent="-N3HLPEfKTboXvXfg7JB-135" vertex="1"><mxGeometry y="34" width="160" height="26" as="geometry"/></mxCell><mxCell id="-N3HLPEfKTboXvXfg7JB-140" value="" style="endArrow=block;dashed=1;endFill=0;endSize=12;html=1;exitX=0.25;exitY=0;exitDx=0;exitDy=0;entryX=1;entryY=0.5;entryDx=0;entryDy=0;" parent="1" source="-N3HLPEfKTboXvXfg7JB-135" target="-N3HLPEfKTboXvXfg7JB-115" edge="1"><mxGeometry width="160" relative="1" as="geometry"><mxPoint x="1670" y="1170" as="sourcePoint"/><mxPoint x="1830" y="1170" as="targetPoint"/></mxGeometry></mxCell><mxCell id="-N3HLPEfKTboXvXfg7JB-141" value="DialogsRepository" style="swimlane;fontStyle=1;align=center;verticalAlign=top;childLayout=stackLayout;horizontal=1;startSize=26;horizontalStack=0;resizeParent=1;resizeParentMax=0;resizeLast=0;collapsible=1;marginBottom=0;" parent="1" vertex="1"><mxGeometry x="1110" y="844" width="260" height="170" as="geometry"/></mxCell><mxCell id="-N3HLPEfKTboXvXfg7JB-143" value="" style="line;strokeWidth=1;fillColor=none;align=left;verticalAlign=middle;spacingTop=-1;spacingLeft=3;spacingRight=3;rotatable=0;labelPosition=right;points=[];portConstraint=eastwest;" parent="-N3HLPEfKTboXvXfg7JB-141" vertex="1"><mxGeometry y="26" width="260" height="8" as="geometry"/></mxCell><mxCell id="-N3HLPEfKTboXvXfg7JB-144" value="+ add(dialog: IDialog): void&#10;+ remove(dialog: IDialog): void&#10;+ remove(dialog: IDialog): void&#10;+ update(index: int, dialog: IDialog): void&#10;+ get(index: int): void&#10;+ count(): int" style="text;strokeColor=none;fillColor=none;align=left;verticalAlign=top;spacingLeft=4;spacingRight=4;overflow=hidden;rotatable=0;points=[[0,0.5],[1,0.5]];portConstraint=eastwest;" parent="-N3HLPEfKTboXvXfg7JB-141" vertex="1"><mxGeometry y="34" width="260" height="136" as="geometry"/></mxCell><mxCell id="-N3HLPEfKTboXvXfg7JB-146" value="Relation" style="endArrow=open;html=1;endSize=12;startArrow=diamondThin;startSize=14;startFill=0;edgeStyle=orthogonalEdgeStyle;exitX=0.75;exitY=0;exitDx=0;exitDy=0;entryX=0;entryY=0;entryDx=0;entryDy=0;" parent="1" source="-N3HLPEfKTboXvXfg7JB-141" target="-N3HLPEfKTboXvXfg7JB-115" edge="1"><mxGeometry relative="1" as="geometry"><mxPoint x="1550" y="860" as="sourcePoint"/><mxPoint x="1710" y="860" as="targetPoint"/></mxGeometry></mxCell><mxCell id="-N3HLPEfKTboXvXfg7JB-147" value="0..n" style="edgeLabel;resizable=0;html=1;align=left;verticalAlign=top;" parent="-N3HLPEfKTboXvXfg7JB-146" connectable="0" vertex="1"><mxGeometry x="-1" relative="1" as="geometry"/></mxCell><mxCell id="-N3HLPEfKTboXvXfg7JB-148" value="1" style="edgeLabel;resizable=0;html=1;align=right;verticalAlign=top;" parent="-N3HLPEfKTboXvXfg7JB-146" connectable="0" vertex="1"><mxGeometry x="1" relative="1" as="geometry"/></mxCell><mxCell id="-N3HLPEfKTboXvXfg7JB-153" value="Extends" style="endArrow=block;endSize=16;endFill=0;html=1;exitX=1;exitY=0;exitDx=0;exitDy=0;entryX=0.358;entryY=1;entryDx=0;entryDy=0;entryPerimeter=0;" parent="1" source="-N3HLPEfKTboXvXfg7JB-59" target="-N3HLPEfKTboXvXfg7JB-152" edge="1"><mxGeometry width="160" relative="1" as="geometry"><mxPoint x="1240" y="660" as="sourcePoint"/><mxPoint x="1400" y="660" as="targetPoint"/></mxGeometry></mxCell><mxCell id="-N3HLPEfKTboXvXfg7JB-154" value="Extends" style="endArrow=block;endSize=16;endFill=0;html=1;exitX=0.25;exitY=0;exitDx=0;exitDy=0;entryX=0.674;entryY=1.02;entryDx=0;entryDy=0;entryPerimeter=0;" parent="1" source="-N3HLPEfKTboXvXfg7JB-141" target="-N3HLPEfKTboXvXfg7JB-152" edge="1"><mxGeometry width="160" relative="1" as="geometry"><mxPoint x="1240" y="660" as="sourcePoint"/><mxPoint x="1400" y="660" as="targetPoint"/></mxGeometry></mxCell><mxCell id="-N3HLPEfKTboXvXfg7JB-156" value="1" style="endArrow=open;html=1;endSize=12;startArrow=diamondThin;startSize=14;startFill=0;edgeStyle=orthogonalEdgeStyle;align=left;verticalAlign=bottom;exitX=0.223;exitY=0.009;exitDx=0;exitDy=0;exitPerimeter=0;entryX=1;entryY=0.5;entryDx=0;entryDy=0;" parent="1" source="-N3HLPEfKTboXvXfg7JB-102" target="-N3HLPEfKTboXvXfg7JB-144" edge="1"><mxGeometry x="-1" y="3" relative="1" as="geometry"><mxPoint x="970" y="1160" as="sourcePoint"/><mxPoint x="1130" y="1160" as="targetPoint"/></mxGeometry></mxCell><mxCell id="-N3HLPEfKTboXvXfg7JB-102" value="View" style="swimlane;fontStyle=1;align=center;verticalAlign=top;childLayout=stackLayout;horizontal=1;startSize=26;horizontalStack=0;resizeParent=1;resizeParentMax=0;resizeLast=0;collapsible=1;marginBottom=0;" parent="1" vertex="1"><mxGeometry x="860" y="1226" width="340" height="228" as="geometry"/></mxCell><mxCell id="-N3HLPEfKTboXvXfg7JB-103" value="- dialogs: DialogsRepository&#10;- controller: Controller" style="text;strokeColor=none;fillColor=none;align=left;verticalAlign=top;spacingLeft=4;spacingRight=4;overflow=hidden;rotatable=0;points=[[0,0.5],[1,0.5]];portConstraint=eastwest;" parent="-N3HLPEfKTboXvXfg7JB-102" vertex="1"><mxGeometry y="26" width="340" height="44" as="geometry"/></mxCell><mxCell id="-N3HLPEfKTboXvXfg7JB-104" value="" style="line;strokeWidth=1;fillColor=none;align=left;verticalAlign=middle;spacingTop=-1;spacingLeft=3;spacingRight=3;rotatable=0;labelPosition=right;points=[];portConstraint=eastwest;" parent="-N3HLPEfKTboXvXfg7JB-102" vertex="1"><mxGeometry y="70" width="340" height="8" as="geometry"/></mxCell><mxCell id="-N3HLPEfKTboXvXfg7JB-105" value="+ printMenu() : void&#10;- showPerimeters() ; void&#10;- showAreas(): void&#10;- showLengths(): void&#10;- chooseAction(): void&#10;- chooseDialog() : int&#10;- showDialog(index: int): void&#10;- showDialogsList(): void&#10;+ View(controller: Controller, IRepository&lt;Dialog&gt; : dialogs)&#10;" style="text;strokeColor=none;fillColor=none;align=left;verticalAlign=top;spacingLeft=4;spacingRight=4;overflow=hidden;rotatable=0;points=[[0,0.5],[1,0.5]];portConstraint=eastwest;" parent="-N3HLPEfKTboXvXfg7JB-102" vertex="1"><mxGeometry y="78" width="340" height="150" as="geometry"/></mxCell><mxCell id="-N3HLPEfKTboXvXfg7JB-157" value="Use" style="endArrow=open;endSize=12;dashed=1;html=1;exitX=0.25;exitY=0;exitDx=0;exitDy=0;entryX=0.575;entryY=1.032;entryDx=0;entryDy=0;entryPerimeter=0;" parent="1" source="-N3HLPEfKTboXvXfg7JB-119" target="-N3HLPEfKTboXvXfg7JB-30" edge="1"><mxGeometry width="160" relative="1" as="geometry"><mxPoint x="1320" y="1160" as="sourcePoint"/><mxPoint x="1480" y="1160" as="targetPoint"/><Array as="points"><mxPoint x="1200" y="1210"/><mxPoint x="1100" y="1140"/><mxPoint x="840" y="1110"/></Array></mxGeometry></mxCell><mxCell id="-N3HLPEfKTboXvXfg7JB-158" value="Use" style="endArrow=open;endSize=12;dashed=1;html=1;exitX=0.25;exitY=0;exitDx=0;exitDy=0;entryX=1;entryY=0.5;entryDx=0;entryDy=0;" parent="1" source="-N3HLPEfKTboXvXfg7JB-124" target="-N3HLPEfKTboXvXfg7JB-26" edge="1"><mxGeometry width="160" relative="1" as="geometry"><mxPoint x="870" y="990" as="sourcePoint"/><mxPoint x="1030" y="990" as="targetPoint"/><Array as="points"><mxPoint x="840" y="1120"/></Array></mxGeometry></mxCell><mxCell id="-N3HLPEfKTboXvXfg7JB-160" value="Use" style="endArrow=open;endSize=12;dashed=1;html=1;exitX=0;exitY=0;exitDx=0;exitDy=0;entryX=0.294;entryY=1.063;entryDx=0;entryDy=0;entryPerimeter=0;" parent="1" source="-N3HLPEfKTboXvXfg7JB-130" target="-N3HLPEfKTboXvXfg7JB-40" edge="1"><mxGeometry width="160" relative="1" as="geometry"><mxPoint x="870" y="990" as="sourcePoint"/><mxPoint x="1030" y="990" as="targetPoint"/></mxGeometry></mxCell><mxCell id="-N3HLPEfKTboXvXfg7JB-33" value="Program" style="swimlane;fontStyle=1;align=center;verticalAlign=top;childLayout=stackLayout;horizontal=1;startSize=26;horizontalStack=0;resizeParent=1;resizeParentMax=0;resizeLast=0;collapsible=1;marginBottom=0;" parent="1" vertex="1"><mxGeometry x="1210" y="1610" width="160" height="60" as="geometry"/></mxCell><mxCell id="-N3HLPEfKTboXvXfg7JB-35" value="" style="line;strokeWidth=1;fillColor=none;align=left;verticalAlign=middle;spacingTop=-1;spacingLeft=3;spacingRight=3;rotatable=0;labelPosition=right;points=[];portConstraint=eastwest;" parent="-N3HLPEfKTboXvXfg7JB-33" vertex="1"><mxGeometry y="26" width="160" height="8" as="geometry"/></mxCell><mxCell id="-N3HLPEfKTboXvXfg7JB-36" value="+ main(args: String[]): void" style="text;strokeColor=none;fillColor=none;align=left;verticalAlign=top;spacingLeft=4;spacingRight=4;overflow=hidden;rotatable=0;points=[[0,0.5],[1,0.5]];portConstraint=eastwest;fontStyle=2" parent="-N3HLPEfKTboXvXfg7JB-33" vertex="1"><mxGeometry y="34" width="160" height="26" as="geometry"/></mxCell><mxCell id="-N3HLPEfKTboXvXfg7JB-162" value="Use" style="endArrow=open;endSize=12;dashed=1;html=1;exitX=0.25;exitY=0;exitDx=0;exitDy=0;entryX=0.25;entryY=0.962;entryDx=0;entryDy=0;entryPerimeter=0;" parent="1" source="-N3HLPEfKTboXvXfg7JB-33" target="-N3HLPEfKTboXvXfg7JB-122" edge="1"><mxGeometry width="160" relative="1" as="geometry"><mxPoint x="1120" y="1290" as="sourcePoint"/><mxPoint x="1280" y="1290" as="targetPoint"/></mxGeometry></mxCell><mxCell id="-N3HLPEfKTboXvXfg7JB-163" value="Use" style="endArrow=open;endSize=12;dashed=1;html=1;exitX=0.5;exitY=0;exitDx=0;exitDy=0;" parent="1" source="-N3HLPEfKTboXvXfg7JB-33" target="-N3HLPEfKTboXvXfg7JB-127" edge="1"><mxGeometry width="160" relative="1" as="geometry"><mxPoint x="1120" y="1290" as="sourcePoint"/><mxPoint x="1280" y="1290" as="targetPoint"/></mxGeometry></mxCell><mxCell id="-N3HLPEfKTboXvXfg7JB-164" value="Use" style="endArrow=open;endSize=12;dashed=1;html=1;exitX=0.75;exitY=0;exitDx=0;exitDy=0;" parent="1" source="-N3HLPEfKTboXvXfg7JB-33" target="-N3HLPEfKTboXvXfg7JB-133" edge="1"><mxGeometry width="160" relative="1" as="geometry"><mxPoint x="1120" y="1290" as="sourcePoint"/><mxPoint x="1280" y="1290" as="targetPoint"/></mxGeometry></mxCell><mxCell id="-N3HLPEfKTboXvXfg7JB-166" value="Use" style="endArrow=open;endSize=12;dashed=1;html=1;exitX=1;exitY=0;exitDx=0;exitDy=0;entryX=0;entryY=0.5;entryDx=0;entryDy=0;" parent="1" source="-N3HLPEfKTboXvXfg7JB-33" target="-N3HLPEfKTboXvXfg7JB-138" edge="1"><mxGeometry width="160" relative="1" as="geometry"><mxPoint x="1120" y="1290" as="sourcePoint"/><mxPoint x="1280" y="1290" as="targetPoint"/></mxGeometry></mxCell><mxCell id="-N3HLPEfKTboXvXfg7JB-168" value="Use" style="endArrow=open;endSize=12;dashed=1;html=1;exitX=0;exitY=0;exitDx=0;exitDy=0;entryX=0.732;entryY=0.993;entryDx=0;entryDy=0;entryPerimeter=0;" parent="1" source="-N3HLPEfKTboXvXfg7JB-33" target="-N3HLPEfKTboXvXfg7JB-105" edge="1"><mxGeometry width="160" relative="1" as="geometry"><mxPoint x="1120" y="1390" as="sourcePoint"/><mxPoint x="1280" y="1390" as="targetPoint"/></mxGeometry></mxCell><mxCell id="-N3HLPEfKTboXvXfg7JB-169" value="Use" style="endArrow=open;endSize=12;dashed=1;html=1;exitX=0;exitY=0;exitDx=0;exitDy=0;entryX=0.418;entryY=0.988;entryDx=0;entryDy=0;entryPerimeter=0;" parent="1" source="-N3HLPEfKTboXvXfg7JB-33" target="-N3HLPEfKTboXvXfg7JB-109" edge="1"><mxGeometry width="160" relative="1" as="geometry"><mxPoint x="1120" y="1390" as="sourcePoint"/><mxPoint x="1280" y="1390" as="targetPoint"/></mxGeometry></mxCell></root></mxGraphModel></diagram></mxfile>